<?xml version="1.0" encoding="UTF-8"?>
<svg id="Layer_1" data-name="Layer 1" xmlns="http://www.w3.org/2000/svg" viewBox="0 0 726.44 204.44">
  <defs>
    <style>
      .cls-1 {
        fill: none;
      }

      .cls-1, .cls-2, .cls-3, .cls-4, .cls-5, .cls-6, .cls-7 {
        stroke: #fff;
        stroke-miterlimit: 10;
        stroke-width: 3px;
      }

      .cls-8 {
        font-family: Lato-Regular, Lato;
        font-size: 69.95px;
        letter-spacing: .23em;
      }

      .cls-2 {
        fill: #00a651;
      }

      .cls-3 {
        fill: #fbb040;
      }

      .cls-4 {
        fill: #f7941e;
      }

      .cls-5 {
        fill: #ed1c24;
      }

      .cls-6 {
        fill: #fff200;
      }

      .cls-7 {
        fill: #00aeef;
      }
    </style>
  </defs>
  <text class="cls-8" transform="translate(215.78 122.38) scale(1.02 1)"><tspan x="0" y="0">MOSAIQUE</tspan></text>
  <g>
    <path class="cls-5" d="M76.21,155.1h-.02c-7.42,0-14.14-2.98-19.04-7.79-.03-.02-.05-.05-.08-.08-4.92-4.87-7.99-11.59-8.06-19.04h.27c6.11-.05,11.74-2.1,16.26-5.54l4.22,4.22c1.46,1.46,3.28,2.32,5.17,2.59,2.75,.39,5.63-.47,7.74-2.59l4.29-4.29c.22,.16,.43,.32,.65,.48,.14,.1,.27,.19,.41,.29,.23,.16,.47,.32,.7,.47,.28,.18,.57,.36,.87,.53,.03,.02,.06,.04,.1,.06,.2,.12,.41,.24,.63,.35,.08,.05,.16,.1,.25,.14,.09,.05,.18,.1,.27,.15,.23,.13,.47,.24,.7,.36,.01,0,.02,.01,.03,.01,.31,.15,.62,.3,.94,.44,.01,.01,.03,.02,.05,.02,.3,.14,.6,.26,.91,.38,.05,.03,.1,.05,.15,.06,.32,.13,.64,.24,.97,.36,.67,.23,1.35,.44,2.04,.62,.2,.05,.41,.1,.61,.15,.03,.01,.07,.02,.1,.02,1.47,.34,2.97,.56,4.52,.65h.02c.51,.03,1.03,.05,1.55,.05-.02,2.14-.29,4.21-.78,6.2-1.51,6.19-5.15,11.55-10.09,15.27-4.55,3.42-10.2,5.44-16.33,5.44Z"/>
    <path class="cls-1" d="M76.29,107.09c-.23,0-.45-.01-.68-.04-2.86-.3-5.16-2.49-5.62-5.3-.02-.11-.03-.22-.05-.33,1.55-.36,3.15-.6,4.79-.68,.41-.02,.84-.03,1.26-.03,.07,0,.13,0,.2,0h.1c.52,0,1.03,.02,1.55,.05,1.64,.1,3.25,.34,4.8,.72,0,.07-.02,.14-.03,.2-.43,2.85-2.75,5.08-5.64,5.39-.03,0-.05,0-.08,0-.2,.02-.4,.03-.6,.03Z"/>
    <path class="cls-5" d="M69.76,75.1l-4.22,4.22c-4.56-3.47-10.26-5.54-16.44-5.54h-.08c0-.09,0-.19,0-.28,0-14.95,12.07-27.08,26.99-27.2,.07,0,.14,0,.22,0,6.17,0,11.86,2.06,16.42,5.52,1.24,.93,2.39,1.98,3.44,3.11,.27,.28,.52,.57,.78,.86,.16,.19,.33,.39,.48,.58,.02,.01,.02,.02,.03,.03,2.51,3.1,4.35,6.76,5.3,10.76,.49,2.03,.74,4.15,.74,6.33h0v.02c0,.06,0,.11,0,.17,0,.03,0,.07,0,.1-.23,0-.45,0-.68,.01-.14,0-.28,0-.41,.02-.04,0-.08,0-.12,0-.17,0-.34,.01-.51,.03-1.28,.08-2.53,.25-3.75,.51-.24,.05-.47,.1-.7,.15-.01,0-.03,0-.04,.01-.24,.06-.47,.11-.7,.18-.65,.17-1.28,.36-1.91,.59-.34,.11-.68,.24-1.02,.38-.01,0-.02,0-.03,.02-.33,.13-.66,.26-.98,.41-.34,.15-.66,.3-.99,.46-.32,.15-.63,.31-.94,.48-.03,.01-.07,.03-.1,.05-.27,.15-.55,.3-.81,.46-.05,.03-.1,.06-.15,.09-.24,.14-.48,.29-.71,.44-.28,.18-.57,.37-.84,.56-.11,.07-.22,.14-.32,.22-.24,.17-.48,.35-.72,.53l-4.29-4.29c-2.17-2.17-5.16-3.02-7.97-2.55-1.81,.3-3.55,1.15-4.94,2.55Z"/>
    <path class="cls-1" d="M76.3,100.7h-.1c-.07,0-.13,0-.2,0-2.08-.01-4.1-.26-6.05-.72,.32-2.92,2.62-5.25,5.53-5.61,.27-.04,.53-.06,.81-.06,.15,0,.31,0,.46,.02,.08,0,.15,.01,.23,.03,.04,0,.09,0,.13,.01,2.89,.36,5.18,2.67,5.52,5.57-2.03,.49-4.15,.76-6.34,.77Z"/>
    <path class="cls-5" d="M103.42,127.9c0,.1,0,.19,0,.29h.18s0-.1,0-.1c0-6.13,2.03-11.78,5.44-16.32l-4.13-4.13c-.59-.59-1.07-1.23-1.47-1.92-.07,.13-.15,.25-.23,.37-.05,.07-.1,.14-.15,.2-.04,.06-.08,.12-.13,.18-.06,.09-.13,.16-.19,.24-.2,.25-.41,.49-.65,.72l-4.13,4.13c3.42,4.55,5.44,10.2,5.44,16.33Z"/>
    <path class="cls-5" d="M104.76,100.52c0,.16,.01,.31,.01,.47,0,.2,0,.41-.02,.61-.01,.19-.03,.38-.06,.56,0,.01,0,.03,0,.04,0,.03,0,.06-.01,.1-.02,.18-.06,.35-.09,.52-.03,.18-.07,.35-.12,.52-.02,.05-.03,.1-.04,.15-.05,.17-.11,.35-.16,.52,0,0,0,.01,0,.01-.04,.1-.07,.2-.11,.3-.04,.1-.07,.19-.12,.29-.08,.19-.17,.38-.27,.57-.01,.02-.02,.04-.03,.06-.09,.17-.18,.33-.28,.49,.39,.69,.88,1.33,1.47,1.92l4.13,4.13c-3.42,4.55-5.44,10.19-5.44,16.32v.1c6.13-.02,11.79-2.07,16.33-5.53,4.96-3.76,8.59-9.18,10.05-15.44,.47-2,.72-4.09,.72-6.23v-.09c0-2.18-.27-4.29-.76-6.32-1.03-4.27-3.07-8.15-5.85-11.37-.19-.22-.38-.43-.58-.64-1.02-1.12-2.14-2.15-3.35-3.09-4.58-3.55-10.33-5.67-16.56-5.69h-.18c-.06,6.16-2.17,11.84-5.69,16.37l4.38,4.38c.59,.59,1.07,1.23,1.47,1.91,.02,.04,.05,.08,.06,.12,.06,.11,.12,.22,.18,.32,.02,.05,.05,.1,.07,.15,.01,.02,.02,.03,.03,.05,.06,.13,.12,.26,.17,.39,.01,.03,.02,.05,.03,.08,.07,.17,.13,.34,.19,.51,0,.02,.01,.04,.02,.07,.05,.14,.1,.29,.14,.44,.01,.05,.03,.1,.04,.15,.05,.17,.08,.34,.11,.51,.03,.15,.06,.3,.07,.45,.01,.07,.02,.14,.03,.2,0,.01,0,.02,0,.03,0,.02,0,.03,0,.05v.02c.01,.1,.02,.19,.03,.28,0,.09,.01,.17,.02,.26Z"/>
    <path class="cls-4" d="M86.96,79.39l10.76,10.76c3.52-4.53,5.63-10.21,5.69-16.37-6.19,.02-11.89,2.11-16.45,5.6Z"/>
    <path class="cls-4" d="M86.96,122.59c4.56,3.5,10.26,5.59,16.45,5.6,0-.1,0-.19,0-.29,0-6.13-2.03-11.78-5.44-16.33l-11.01,11.01Z"/>
    <path class="cls-1" d="M76.29,100.99c0,2.09,.23,4.11,.68,6.06,2.96-.31,5.31-2.64,5.67-5.59,.03-.25,.05-.51,.05-.76s-.02-.52-.05-.77c-.34-2.9-2.63-5.21-5.52-5.57-.52,2.03-.8,4.15-.81,6.34,0,.09,0,.19,0,.28Z"/>
    <path class="cls-5" d="M49.02,128.19c-14.99-.04-27.12-12.2-27.12-27.2s12.13-27.16,27.12-27.2c0,.38,.02,.75,.03,1.12v.03c.02,.36,.05,.72,.08,1.07,0,.02,0,.05,0,.06,.03,.34,.07,.68,.11,1.02,0,.03,0,.07,.01,.11,.04,.31,.09,.61,.14,.91,.07,.43,.15,.86,.25,1.3,.06,.28,.13,.56,.2,.84,.01,.03,.02,.06,.03,.1,.09,.34,.18,.67,.28,1,.1,.34,.21,.68,.33,1.02,.09,.28,.2,.57,.31,.85,.03,.07,.05,.14,.08,.22,.09,.23,.18,.45,.28,.68,.04,.11,.09,.22,.14,.32,.1,.24,.21,.48,.33,.72,.03,.07,.07,.15,.11,.22,.11,.25,.23,.49,.38,.74,.03,.07,.06,.13,.1,.2,.15,.29,.31,.58,.48,.86,.15,.28,.32,.55,.5,.82,.03,.05,.06,.1,.09,.14,.16,.26,.34,.52,.52,.78,.02,.02,.02,.03,.03,.05,.19,.28,.39,.56,.6,.84,0,0,.01,.02,.02,.02,.08,.12,.17,.23,.26,.35l-4.38,4.38c-3.56,3.56-3.56,9.35,0,12.91l4.13,4.13c-3.42,4.55-5.44,10.2-5.44,16.33,0,.1,0,.19,0,.29Z"/>
    <path class="cls-1" d="M75.62,107.05c-2.86-.3-5.16-2.49-5.62-5.3-.02-.11-.03-.22-.05-.33-.03-.24-.05-.48-.05-.72,0-.22,.01-.44,.04-.66,0-.02,0-.05,0-.07,.32-2.92,2.62-5.25,5.53-5.61,.3,1.19,.52,2.42,.65,3.66h0c.05,.44,.09,.87,.11,1.31v.02c.03,.45,.04,.9,.05,1.35,0,.03,0,.06,0,.09,0,.06,0,.12,0,.18h0c0,.53-.02,1.05-.05,1.56,0,0,0,.02,0,.02-.09,1.53-.3,3.04-.63,4.49Z"/>
    <path class="cls-4" d="M49.28,128.19h-.27c0-.1,0-.19,0-.29,0-6.13,2.03-11.78,5.44-16.33l.27,.27c-3.42,4.55-5.44,10.2-5.44,16.33v.02Z"/>
    <path class="cls-4" d="M49.1,73.79c.03,5.99,2.01,11.52,5.33,15.99-.2-.27-.4-.55-.6-.84-.01-.01-.02-.03-.03-.05-.18-.26-.35-.52-.52-.78-.03-.05-.06-.1-.09-.14-.18-.27-.34-.55-.5-.82-.16-.28-.33-.57-.48-.86-.04-.07-.07-.13-.1-.2-.14-.24-.26-.49-.38-.74-.04-.07-.08-.15-.11-.22-.12-.24-.23-.47-.33-.72-.05-.1-.1-.21-.14-.32-.1-.23-.19-.45-.28-.68-.03-.07-.05-.15-.08-.22-.11-.28-.21-.56-.31-.85-.11-.34-.23-.68-.33-1.02-.1-.34-.19-.67-.28-1-.01-.03-.02-.07-.03-.1-.07-.28-.14-.56-.2-.84-.1-.43-.18-.86-.25-1.3-.06-.3-.1-.6-.14-.91,0-.04-.01-.07-.01-.11-.05-.34-.09-.68-.11-1.02,0-.02,0-.04,0-.06-.03-.36-.06-.72-.08-1.07v-.03c-.02-.38-.03-.74-.03-1.12h.08Z"/>
    <path class="cls-4" d="M54.71,90.15c-.09-.12-.18-.23-.26-.35,.09,.11,.18,.23,.27,.35h0Z"/>
    <path class="cls-2" d="M77.11,94.37c2.89,.36,5.18,2.67,5.52,5.57,6.08-1.47,11.37-4.98,15.08-9.78l-10.76-10.76c-4.8,3.68-8.34,8.93-9.84,14.98Z"/>
    <path class="cls-2" d="M54.71,90.15s.06,.08,.09,.13c-.03-.04-.06-.08-.1-.12h0Z"/>
    <path class="cls-2" d="M54.73,111.84l-.27-.27c3.76-5,9.21-8.66,15.49-10.15,.01,.11,.03,.22,.05,.33-6.19,1.51-11.55,5.15-15.27,10.09Z"/>
    <path class="cls-2" d="M76.98,107.05c1.43,6.28,5.03,11.74,9.98,15.53l11.01-11.01c-3.73-4.96-9.11-8.6-15.33-10.11-.35,2.95-2.71,5.27-5.67,5.59Z"/>
    <path class="cls-7" d="M77.11,94.37s-.09-.01-.13-.01c-.08-.02-.15-.02-.23-.03,.89-3.71,2.55-7.12,4.78-10.06l-4.22-4.22c-2.05-2.05-2.92-4.83-2.61-7.49,2.81-.47,5.8,.38,7.97,2.55l4.29,4.29c-1.93,1.48-3.67,3.22-5.13,5.17-2.19,2.88-3.81,6.2-4.71,9.81Z"/>
    <path class="cls-7" d="M54.46,111.57l-4.13-4.13c-3.56-3.56-3.56-9.35,0-12.91l4.38-4.38s.06,.08,.1,.12c.15,.19,.3,.38,.46,.57,.1,.12,.19,.24,.3,.35,.03,.03,.06,.07,.09,.1,.18,.2,.36,.41,.54,.61,3.61,3.94,8.38,6.8,13.77,8.07,0,.02,0,.05,0,.07-.03,.22-.04,.44-.04,.66,0,.24,.01,.48,.05,.72-6.29,1.48-11.73,5.14-15.49,10.15Z"/>
    <path class="cls-7" d="M74.93,129.46c-.39-2.75,.47-5.63,2.59-7.74l4.29-4.29c-2.31-3.02-4.01-6.54-4.9-10.37,.03,0,.05,0,.08,0,.87,3.83,2.54,7.34,4.84,10.36,.29,.39,.6,.78,.92,1.15,.24,.29,.5,.57,.76,.85,.03,.04,.06,.07,.11,.11,.2,.22,.41,.44,.63,.65,.12,.13,.25,.26,.38,.38,.14,.15,.28,.28,.43,.41,.26,.24,.51,.47,.78,.69,.37,.33,.75,.64,1.14,.93l-4.29,4.29c-2.11,2.11-5,2.97-7.74,2.59Z"/>
    <path class="cls-7" d="M82.69,100.7c0,.26-.02,.51-.05,.76,6.22,1.51,11.6,5.15,15.33,10.11l4.13-4.13c.23-.23,.45-.47,.65-.72,.07-.08,.13-.16,.19-.24,.05-.06,.09-.12,.13-.18,.05-.07,.1-.14,.15-.2,.08-.12,.16-.24,.23-.37-1.65-2.87-1.61-6.45,.12-9.29-.39-.68-.88-1.32-1.47-1.91l-4.38-4.38c-3.72,4.8-9,8.32-15.08,9.78,.03,.25,.05,.51,.05,.77Z"/>
    <path class="cls-1" d="M76.29,107.09c-.23,0-.45-.01-.68-.04-2.86-.3-5.16-2.49-5.62-5.3-.02-.11-.03-.22-.05-.33-.03-.24-.05-.48-.05-.72,0-.22,.01-.44,.04-.66,0-.02,0-.05,0-.07,.32-2.92,2.62-5.25,5.53-5.61,.27-.04,.53-.06,.81-.06,.15,0,.31,0,.46,.02,.08,0,.15,.01,.23,.03,.04,0,.09,0,.13,.01,2.89,.36,5.18,2.67,5.52,5.57,0,.03,.01,.07,.01,.11h0c.02,.11,.02,.22,.03,.33s.01,.22,.01,.33c0,.26-.02,.51-.05,.76,0,.07-.02,.14-.03,.2,0,.02,0,.05-.01,.07-.02,.13-.05,.26-.08,.39,0,.05-.02,.1-.03,.15-.03,.14-.08,.28-.13,.43-.05,.16-.11,.33-.18,.49-.07,.16-.14,.32-.23,.48-.06,.11-.12,.23-.19,.34-.03,.05-.06,.1-.1,.15-.09,.13-.18,.26-.27,.39-.11,.14-.22,.27-.33,.4-.34,.39-.73,.73-1.15,1.02-.71,.49-1.52,.84-2.4,1.01h-.01c-.18,.03-.35,.06-.53,.08-.03,0-.05,0-.08,0-.2,.02-.4,.03-.6,.03Z"/>
    <path class="cls-6" d="M76.29,107.09c-.23,0-.45-.01-.68-.04-2.86-.3-5.16-2.49-5.62-5.3-.02-.11-.03-.22-.05-.33-.03-.24-.05-.48-.05-.72,0-.22,.01-.44,.04-.66,0-.02,0-.05,0-.07,.32-2.92,2.62-5.25,5.53-5.61,.27-.04,.53-.06,.81-.06,.15,0,.31,0,.46,.02,.08,0,.15,.01,.23,.03,.04,0,.09,0,.13,.01,2.89,.36,5.18,2.67,5.52,5.57,0,.03,.01,.07,.01,.11h0c.02,.11,.02,.22,.03,.33s.01,.22,.01,.33c0,.26-.02,.51-.05,.76,0,.07-.02,.14-.03,.2,0,.02,0,.05-.01,.07-.02,.13-.05,.26-.08,.39,0,.05-.02,.1-.03,.15-.03,.14-.08,.28-.13,.43-.05,.16-.11,.33-.18,.49-.07,.16-.14,.32-.23,.48-.06,.11-.12,.23-.19,.34-.03,.05-.06,.1-.1,.15-.09,.13-.18,.26-.27,.39-.11,.14-.22,.27-.33,.4-.34,.39-.73,.73-1.15,1.02-.71,.49-1.52,.84-2.4,1.01h-.01c-.18,.03-.35,.06-.53,.08-.03,0-.05,0-.08,0-.2,.02-.4,.03-.6,.03Z"/>
    <path class="cls-5" d="M130.79,155.3c-.06,0-.13,0-.19,0-5.52-.03-10.66-1.72-14.93-4.58-.02,0-.04-.02-.06-.04-.13-.07-.24-.16-.36-.24-.04-.02-.08-.05-.12-.09-.1-.07-.2-.14-.3-.22-.03-.02-.06-.04-.1-.07-.15-.1-.3-.22-.44-.33-.02-.02-.05-.03-.07-.05-.3-.23-.6-.47-.89-.72-4.4-3.68-7.62-8.74-9-14.52-.38-1.55-.61-3.15-.7-4.79h0c-.03-.42-.04-.84-.05-1.26h.09c.19,0,.38,0,.56,0,.13,0,.26,0,.38-.01,.14,0,.27-.01,.4-.02,.2-.01,.4-.02,.6-.03,.24-.02,.49-.04,.73-.06,0,0,0,0,0,0,.24-.02,.49-.05,.73-.09,.15-.02,.3-.03,.44-.06,.6-.09,1.19-.19,1.77-.31,.25-.05,.5-.11,.75-.17,.23-.06,.45-.11,.68-.18,.42-.11,.83-.23,1.24-.36,.16-.05,.34-.1,.5-.16,.01,0,.02,0,.03-.01,.31-.1,.63-.22,.93-.34,.03-.01,.06-.02,.09-.03,.31-.12,.61-.24,.9-.37,.06-.03,.11-.05,.17-.08,.31-.14,.62-.28,.92-.43,.22-.1,.43-.21,.64-.32,.15-.07,.3-.15,.45-.24,.2-.11,.41-.22,.61-.34,.16-.09,.31-.18,.47-.28,.27-.16,.53-.32,.79-.49,.26-.16,.51-.34,.76-.51,.3-.2,.59-.41,.87-.63l4.22,4.22c2.05,2.05,4.82,2.92,7.49,2.61,1.98-.22,3.91-1.09,5.43-2.61l4.29-4.29c4.56,3.5,10.26,5.59,16.45,5.6-.15,14.89-12.27,26.91-27.2,26.91Z"/>
    <path class="cls-1" d="M130.87,107.29c-.23,0-.45-.01-.68-.04-.07,0-.15-.02-.22-.03-.03,0-.07-.01-.11-.02-.18-.03-.35-.06-.52-.1-.16-.04-.34-.09-.49-.14h0c-.14-.05-.28-.1-.41-.16-.03-.01-.07-.02-.1-.04-.24-.1-.48-.22-.7-.36-.2-.11-.4-.24-.59-.39-.09-.07-.19-.15-.28-.23-.18-.15-.35-.3-.5-.47-.11-.11-.21-.22-.31-.34-.1-.11-.19-.23-.27-.35-.01-.02-.02-.03-.03-.05-.1-.14-.19-.28-.28-.43-.09-.14-.16-.28-.23-.44,0-.01-.01-.02-.01-.03-.07-.15-.14-.3-.2-.45,0,0,0-.01,0-.01-.06-.15-.11-.31-.16-.46-.06-.19-.11-.39-.15-.59-.03-.15-.06-.31-.07-.46,0-.03,0-.06-.01-.09,1.95-.46,3.98-.7,6.07-.72h.28c2.18,0,4.31,.27,6.34,.76,0,.02,0,.03,0,.05-.01,.07-.02,.15-.03,.22-.01,.09-.03,.18-.05,.27-.02,.09-.04,.18-.06,.27,0,.02,0,.05-.02,.07-.02,.08-.04,.16-.07,.24-.02,.07-.04,.14-.07,.21-.03,.09-.06,.17-.09,.25-.08,.2-.18,.41-.28,.61-.03,.05-.06,.1-.09,.15-.4,.72-.93,1.35-1.57,1.86-.05,.04-.09,.07-.14,.11-.06,.05-.13,.1-.19,.14-.05,.03-.1,.07-.14,.1-.41,.28-.86,.51-1.35,.68-.06,.02-.12,.05-.18,.06-.19,.07-.38,.12-.57,.16-.14,.03-.29,.06-.43,.09-.11,.01-.22,.03-.32,.04-.22,.03-.45,.04-.68,.04Z"/>
    <path class="cls-5" d="M120.15,79.48l-.03,.04c-.28-.22-.57-.43-.87-.63-.56-.4-1.15-.78-1.74-1.13-.05-.03-.1-.05-.14-.08-.27-.16-.55-.32-.84-.47-.01,0-.02-.01-.03-.02-.32-.17-.64-.34-.97-.49-.26-.13-.52-.25-.78-.36-.14-.07-.28-.13-.41-.18-.22-.1-.45-.19-.68-.28-.13-.06-.26-.1-.39-.15-.25-.1-.5-.19-.76-.27-.33-.11-.66-.22-.99-.32-.34-.1-.68-.2-1.03-.28-.21-.06-.42-.11-.64-.16-.02,0-.05-.01-.07-.02-.19-.05-.38-.09-.56-.12-.15-.03-.3-.06-.44-.09-.16-.03-.32-.06-.48-.09-.22-.04-.43-.07-.64-.1-.45-.07-.9-.12-1.36-.16-.11-.01-.22-.02-.32-.03-.06,0-.13-.01-.19-.02-.18-.01-.36-.02-.54-.03-.25-.02-.5-.03-.75-.03-.27,0-.54-.01-.81-.01h-.07c0-.06,0-.13,0-.2v-.09h0c0-.07,0-.13,0-.18,0,0,0-.01,0-.01,.01-2.18,.28-4.29,.78-6.32,1.48-6.05,4.99-11.3,9.76-14.99,4.51-3.5,10.15-5.6,16.27-5.69,.13,0,.26,0,.39,0,7.51,0,14.31,3.05,19.23,7.97,.27,.27,.54,.55,.8,.84,4.46,4.84,7.17,11.3,7.17,18.4,0,.1,0,.19,0,.28h-.11c-6.15,.04-11.81,2.13-16.35,5.6l-4.29-4.29c-1.55-1.55-3.51-2.42-5.54-2.63-2.63-.27-5.36,.61-7.38,2.63l-4.16,4.16h-.01s0,.02,0,.02h0Z"/>
    <path class="cls-1" d="M130.88,100.9h-.28c-2.09-.02-4.12-.27-6.07-.73,0-.03,0-.05,.01-.08,.34-2.77,2.46-4.99,5.18-5.48,.05,0,.1-.02,.15-.02,.02,0,.05,0,.07-.01,.04,0,.09-.01,.13-.02,.27-.04,.53-.06,.81-.06s.55,.02,.82,.06c2.85,.36,5.12,2.6,5.51,5.44,0,.05,.01,.09,.02,.13-2.03,.49-4.15,.76-6.34,.77Z"/>
    <path class="cls-5" d="M158.08,128.39h-.09c0-.1,0-.19,0-.29,0-6.13-2.03-11.78-5.44-16.33l.02-.02,4.11-4.11c3.57-3.56,3.57-9.35,0-12.91l-4.38-4.38c3.52-4.53,5.63-10.21,5.69-16.37h.09c15.02,0,27.2,12.18,27.2,27.2s-12.17,27.2-27.2,27.2Z"/>
    <path class="cls-4" d="M152.3,90.35l-.11-.11c3.5-4.51,5.6-10.14,5.69-16.26h.11c-.06,6.16-2.17,11.84-5.69,16.37Z"/>
    <path class="cls-1" d="M131.55,107.25c-.45-1.95-.68-3.98-.68-6.06,0-.07,0-.15,0-.22v-.18c.03-2.14,.31-4.22,.81-6.22,2.85,.36,5.12,2.6,5.51,5.44,0,.05,.01,.09,.02,.13,.03,.25,.05,.51,.05,.77,0,.26-.02,.51-.05,.76,0,.02,0,.03,0,.05-.01,.07-.02,.15-.03,.22-.01,.09-.03,.18-.05,.27-.02,.09-.04,.18-.06,.27,0,.02,0,.05-.02,.07-.02,.08-.04,.16-.07,.24-.02,.07-.04,.14-.07,.21-.03,.09-.06,.17-.09,.25-.08,.2-.18,.41-.28,.61-.03,.05-.06,.1-.09,.15-.4,.72-.93,1.35-1.57,1.86-.05,.04-.09,.07-.14,.11-.06,.05-.13,.1-.19,.14-.05,.03-.1,.07-.14,.1-.41,.28-.86,.51-1.35,.68-.06,.02-.12,.05-.18,.06-.19,.07-.38,.12-.57,.16-.14,.03-.28,.06-.43,.09-.11,.01-.22,.03-.32,.04Z"/>
    <path class="cls-1" d="M124.49,100.9c0,.24,.01,.48,.05,.72,.33,2.97,2.69,5.32,5.67,5.63,.44-1.95,.68-3.98,.68-6.06,0-.1,0-.19,0-.28-.02-2.18-.3-4.3-.81-6.34-2.91,.36-5.21,2.69-5.53,5.61-.03,.24-.05,.48-.05,.73Z"/>
    <path class="cls-4" d="M103.59,128.09v.1c0,.07,0,.13,0,.2h.07c6.18,0,11.88-2.07,16.45-5.54l-.19-.19-10.89-10.89c-3.42,4.55-5.44,10.19-5.44,16.32Z"/>
    <path class="cls-4" d="M103.6,73.98c.06,6.16,2.17,11.84,5.69,16.37l10.83-10.83c-4.56-3.47-10.26-5.54-16.45-5.54h-.07Z"/>
    <path class="cls-2" d="M137.22,100.14s-.01-.09-.02-.13c6.05-1.48,11.3-4.98,14.99-9.76l.11,.11c-3.72,4.8-9,8.32-15.08,9.78Z"/>
    <path class="cls-2" d="M124.53,100.18c-.57-.14-1.15-.29-1.71-.46-.37-.11-.74-.24-1.11-.37-.55-.19-1.1-.41-1.63-.64-.53-.23-1.06-.48-1.57-.74-.86-.44-1.69-.92-2.5-1.44-.64-.41-1.27-.86-1.88-1.33-.03-.03-.07-.06-.11-.09-.6-.47-1.18-.96-1.74-1.49-.28-.26-.56-.52-.82-.8-.24-.23-.47-.47-.69-.72-.52-.56-1.01-1.15-1.48-1.75l10.83-10.83c.88,.67,1.72,1.39,2.51,2.16,.03,.02,.05,.05,.07,.07,.22,.21,.43,.43,.64,.65,.03,.03,.06,.06,.09,.09,0,0,.02,.02,.03,.03,.07,.08,.15,.16,.22,.24,.14,.15,.27,.3,.4,.45,.3,.32,.57,.66,.85,1,2.39,3,4.17,6.51,5.13,10.36-.04,0-.09,.01-.13,.02-.02,0-.05,0-.07,.01-.05,0-.1,.02-.15,.02-2.72,.49-4.84,2.71-5.18,5.48,0,.03,0,.05-.01,.08Z"/>
    <path class="cls-2" d="M120.12,122.85l-11.08-11.08c.7-.94,1.47-1.82,2.29-2.67,.82-.84,1.69-1.63,2.61-2.35,.07-.06,.14-.11,.22-.16,.85-.66,1.75-1.28,2.68-1.84,.34-.2,.68-.4,1.02-.59,.35-.19,.7-.36,1.05-.54,.36-.17,.72-.34,1.08-.49,.36-.16,.73-.31,1.1-.45,.38-.14,.75-.27,1.13-.4,.38-.13,.76-.24,1.15-.35,.39-.11,.78-.21,1.17-.3,0,.03,0,.06,.01,.09,.02,.15,.05,.31,.07,.46,.04,.2,.09,.39,.15,.59,.05,.15,.1,.31,.16,.46,0,0,0,0,0,.01,.06,.15,.13,.3,.2,.45,0,.01,0,.02,.01,.03,.07,.15,.15,.3,.23,.44,.09,.15,.18,.29,.28,.43,.01,.02,.02,.03,.03,.05,.09,.12,.18,.24,.27,.35,.1,.11,.2,.23,.31,.34,.15,.17,.32,.32,.5,.47,.09,.08,.18,.15,.28,.23,.19,.14,.39,.27,.59,.39,.22,.14,.46,.26,.7,.36,.03,.02,.06,.03,.1,.04,.14,.06,.27,.11,.41,.16h0c.16,.06,.33,.1,.49,.14,.17,.05,.34,.08,.52,.1,.03,0,.07,.01,.11,.02,.07,.01,.15,.02,.22,.03-.88,3.86-2.59,7.41-4.92,10.46-1.48,1.94-3.22,3.67-5.16,5.14Z"/>
    <path class="cls-2" d="M137.22,101.66c3.65,.89,7.02,2.51,9.93,4.71-2.92-2.18-6.29-3.79-9.94-4.66,0-.02,0-.03,0-.05Z"/>
    <path class="cls-7" d="M124.93,84.21c-.27-.34-.55-.68-.85-1-.13-.15-.26-.3-.4-.45-.07-.08-.15-.16-.22-.24-.01-.01-.02-.02-.03-.03-.03-.03-.06-.06-.09-.09-.2-.22-.41-.44-.64-.65-.02-.03-.05-.05-.07-.07-.79-.77-1.63-1.49-2.51-2.16l.03-.04h.01s.01-.02,.01-.02l4.16-4.16c2.02-2.02,4.75-2.89,7.38-2.63,.27,2.63-.61,5.35-2.63,7.37l-4.16,4.16Z"/>
    <path class="cls-7" d="M103.44,105.73c1.73-2.84,1.77-6.42,.12-9.29-1.73,2.84-1.77,6.42-.12,9.29Z"/>
    <path class="cls-7" d="M103.44,105.73c.39,.69,.88,1.33,1.47,1.92l4.13,4.13c3.76-5.01,9.21-8.66,15.49-10.15-.03-.24-.05-.48-.05-.72s.01-.49,.05-.72c-6.15-1.46-11.5-4.99-15.24-9.82l-4.38,4.37c-.53,.53-.98,1.1-1.35,1.72,.02,.04,.05,.08,.06,.12,.06,.11,.12,.22,.18,.32,.02,.05,.05,.1,.07,.15,.01,.02,.02,.03,.03,.05,.06,.13,.12,.26,.17,.39,.01,.03,.02,.05,.03,.08,.07,.17,.13,.34,.19,.51,0,.02,.01,.04,.02,.07,.05,.14,.1,.29,.14,.44,.01,.05,.03,.1,.04,.15,.04,.16,.08,.34,.11,.51,.03,.15,.06,.3,.07,.45,.01,.07,.02,.14,.03,.2,0,.01,0,.02,0,.03,0,.02,0,.03,0,.05v.02c.01,.1,.02,.19,.03,.28,0,.09,.01,.17,.02,.26,0,.16,.01,.31,.01,.47,0,.2,0,.41-.02,.61-.01,.19-.03,.38-.06,.56,0,.01,0,.03,0,.04,0,.03,0,.06-.01,.1-.02,.18-.06,.35-.09,.52-.03,.18-.07,.35-.12,.52-.02,.05-.03,.1-.04,.15-.05,.17-.11,.35-.16,.52,0,0,0,.01,0,.01-.04,.1-.07,.2-.11,.3-.04,.1-.07,.19-.12,.29-.08,.19-.17,.38-.27,.57-.01,.02-.02,.04-.03,.06-.09,.17-.18,.33-.28,.49Z"/>
    <path class="cls-7" d="M124.34,127.07l-4.22-4.22c1.94-1.48,3.68-3.21,5.16-5.14l4.01,4.01c2.17,2.17,3.02,5.16,2.54,7.97-2.67,.31-5.44-.57-7.49-2.61Z"/>
    <path class="cls-7" d="M152.55,111.77c-1.39-1.84-3-3.5-4.8-4.93-.2-.16-.39-.31-.6-.46-2.91-2.2-6.28-3.83-9.93-4.71,.03-.25,.05-.51,.05-.76s-.02-.52-.05-.77c6.08-1.47,11.37-4.98,15.08-9.78l4.38,4.38c3.57,3.56,3.57,9.35,0,12.91l-4.11,4.11-.02,.02Z"/>
    <path class="cls-1" d="M130.87,107.29c-.23,0-.45-.01-.68-.04-.07,0-.15-.02-.22-.03-.03,0-.07-.01-.11-.02-.18-.03-.35-.06-.52-.1-.16-.04-.34-.09-.49-.14h0c-.14-.05-.28-.1-.41-.16-.03-.01-.07-.02-.1-.04-.24-.1-.48-.22-.7-.36-.2-.11-.4-.24-.59-.39-.09-.07-.19-.15-.28-.23-.18-.15-.35-.3-.5-.47-.11-.11-.21-.22-.31-.34-.1-.11-.19-.23-.27-.35-.01-.02-.02-.03-.03-.05-.1-.14-.19-.28-.28-.43-.09-.14-.16-.28-.23-.44,0-.01-.01-.02-.01-.03-.07-.15-.14-.3-.2-.45,0,0,0-.01,0-.01-.06-.15-.11-.31-.16-.46-.06-.19-.11-.39-.15-.59-.03-.15-.06-.31-.07-.46,0-.03,0-.06-.01-.09h0c-.03-.24-.05-.48-.05-.72s.01-.49,.05-.73c0-.03,0-.05,.01-.08,.02-.15,.05-.31,.07-.46,0-.02,0-.03,.01-.05,.07-.34,.16-.66,.28-.98h0c.06-.15,.12-.29,.18-.43,.09-.18,.18-.36,.28-.53,.06-.11,.13-.22,.2-.32,.12-.19,.26-.36,.4-.53,.07-.09,.15-.18,.23-.27,.13-.14,.27-.27,.41-.39,.07-.07,.14-.13,.22-.19,.03-.02,.05-.05,.08-.06,.06-.05,.11-.09,.18-.14,.08-.06,.16-.12,.24-.17,.06-.04,.12-.08,.18-.12,.53-.33,1.12-.59,1.74-.74,.14-.03,.27-.07,.41-.09,.02,0,.03,0,.05-.01,.05,0,.1-.02,.15-.02,.02,0,.05,0,.07-.01,.04,0,.09-.01,.13-.02,.27-.04,.53-.06,.81-.06s.55,.02,.82,.06c2.85,.36,5.12,2.6,5.51,5.44,0,.05,.01,.09,.02,.13,.03,.25,.05,.51,.05,.77,0,.26-.02,.51-.05,.76,0,.02,0,.03,0,.05-.01,.07-.02,.15-.03,.22-.01,.09-.03,.18-.05,.27-.02,.09-.04,.18-.06,.27,0,.02,0,.05-.02,.07-.02,.08-.04,.16-.07,.24-.02,.07-.04,.14-.07,.21-.03,.09-.06,.17-.09,.25-.08,.2-.18,.41-.28,.61-.03,.05-.06,.1-.09,.15-.4,.72-.93,1.35-1.57,1.86-.05,.04-.09,.07-.14,.11-.06,.05-.13,.1-.19,.14-.05,.03-.1,.07-.14,.1-.41,.28-.86,.51-1.35,.68-.06,.02-.12,.05-.18,.06-.19,.07-.38,.12-.57,.16-.14,.03-.28,.06-.43,.09-.11,.01-.22,.03-.32,.04-.22,.03-.45,.04-.68,.04Z"/>
    <path class="cls-6" d="M130.87,107.29c-.23,0-.45-.01-.68-.04-.07,0-.15-.02-.22-.03-.03,0-.07-.01-.11-.02-.18-.03-.35-.06-.52-.1-.16-.04-.34-.09-.49-.14h0c-.14-.05-.28-.1-.41-.16-.03-.01-.07-.02-.1-.04-.24-.1-.48-.22-.7-.36-.2-.11-.4-.24-.59-.39-.09-.07-.19-.15-.28-.23-.18-.15-.35-.3-.5-.47-.11-.11-.21-.22-.31-.34-.1-.11-.19-.23-.27-.35-.01-.02-.02-.03-.03-.05-.1-.14-.19-.28-.28-.43-.09-.14-.16-.28-.23-.44,0-.01-.01-.02-.01-.03-.07-.15-.14-.3-.2-.45,0,0,0-.01,0-.01-.06-.15-.11-.31-.16-.46-.06-.19-.11-.39-.15-.59-.03-.15-.06-.31-.07-.46,0-.03,0-.06-.01-.09h0c-.03-.24-.05-.48-.05-.72s.01-.49,.05-.73c0-.03,0-.05,.01-.08,.02-.15,.05-.31,.07-.46,0-.02,0-.03,.01-.05,.07-.34,.16-.66,.28-.98h0c.06-.15,.12-.29,.18-.43,.09-.18,.18-.36,.28-.53,.06-.11,.13-.22,.2-.32,.12-.19,.26-.36,.4-.53,.07-.09,.15-.18,.23-.27,.13-.14,.27-.27,.41-.39,.07-.07,.14-.13,.22-.19,.03-.02,.05-.05,.08-.06,.06-.05,.11-.09,.18-.14,.08-.06,.16-.12,.24-.17,.06-.04,.12-.08,.18-.12,.53-.33,1.12-.59,1.74-.74,.14-.03,.27-.07,.41-.09,.02,0,.03,0,.05-.01,.05,0,.1-.02,.15-.02,.02,0,.05,0,.07-.01,.04,0,.09-.01,.13-.02,.27-.04,.53-.06,.81-.06s.55,.02,.82,.06c2.85,.36,5.12,2.6,5.51,5.44,0,.05,.01,.09,.02,.13,.03,.25,.05,.51,.05,.77,0,.26-.02,.51-.05,.76,0,.02,0,.03,0,.05-.01,.07-.02,.15-.03,.22-.01,.09-.03,.18-.05,.27-.02,.09-.04,.18-.06,.27,0,.02,0,.05-.02,.07-.02,.08-.04,.16-.07,.24-.02,.07-.04,.14-.07,.21-.03,.09-.06,.17-.09,.25-.08,.2-.18,.41-.28,.61-.03,.05-.06,.1-.09,.15-.4,.72-.93,1.35-1.57,1.86-.05,.04-.09,.07-.14,.11-.06,.05-.13,.1-.19,.14-.05,.03-.1,.07-.14,.1-.41,.28-.86,.51-1.35,.68-.06,.02-.12,.05-.18,.06-.19,.07-.38,.12-.57,.16-.14,.03-.28,.06-.43,.09-.11,.01-.22,.03-.32,.04-.22,.03-.45,.04-.68,.04Z"/>
  </g>
  <g>
    <path class="cls-2" d="M74.93,129.46c-1.89-.27-3.72-1.13-5.17-2.59l-15.03-15.03c3.72-4.94,9.08-8.58,15.27-10.09,.46,2.81,2.76,5,5.62,5.3,.22,.03,.45,.04,.68,.04,.2,0,.4-.01,.6-.03,.89,3.83,2.59,7.35,4.9,10.37l-4.29,4.29c-2.11,2.11-2.97,5-2.59,7.74Z"/>
    <path class="cls-5" d="M76.9,107.06c-.2,.02-.4,.03-.6,.03-.23,0-.45-.01-.68-.04-2.86-.3-5.16-2.49-5.62-5.3,1.99-.49,4.06-.76,6.2-.78,0,.52,.02,1.05,.05,1.56,0,0,0,.02,0,.02,.09,1.53,.31,3.04,.65,4.5Z"/>
    <path class="cls-3" d="M49.28,128.19v-.02c0-6.13,2.03-11.78,5.44-16.33l10.81,10.81c-4.52,3.44-10.15,5.49-16.26,5.54Z"/>
    <path class="cls-5" d="M76.2,155.37c-7.45-.08-14.17-3.14-19.04-8.06-.03-.02-.05-.05-.08-.08-4.81-4.9-7.79-11.62-7.79-19.04,6.11-.05,11.74-2.1,16.26-5.54l4.22,4.22c1.46,1.46,3.28,2.32,5.17,2.59,.27,1.89,1.13,3.72,2.59,5.17l4.22,4.22c-.43,.56-.84,1.15-1.22,1.74-.23,.35-.45,.71-.66,1.07-.15,.27-.31,.53-.45,.81-.33,.61-.64,1.25-.92,1.89-.67,1.53-1.2,3.13-1.59,4.79-.04,.16-.08,.34-.11,.5-.04,.18-.07,.37-.11,.55-.03,.18-.07,.35-.1,.53-.1,.59-.18,1.18-.24,1.77-.02,.16-.03,.32-.05,.49-.03,.32-.05,.64-.06,.97-.01,.19-.02,.38-.02,.57,0,.19-.01,.38-.01,.57v.27Z"/>
    <path class="cls-1" d="M102.96,134.44c-2.97-.33-5.32-2.69-5.63-5.67-.03-.22-.04-.45-.04-.68s.01-.46,.04-.68c.31-2.96,2.64-5.31,5.59-5.67,.49,2.03,.76,4.16,.76,6.34h0v.09c0,2.15-.25,4.25-.72,6.26Z"/>
    <path class="cls-2" d="M131.82,129.69c.48-2.81-.38-5.8-2.54-7.97l-4.01-4.01c2.34-3.05,4.04-6.59,4.92-10.46,.22,.03,.45,.04,.68,.04s.46-.01,.68-.04c.11-.01,.22-.03,.32-.04,.15-.03,.29-.06,.43-.09,.19-.04,.39-.09,.57-.16,.06-.02,.12-.04,.18-.06,.48-.17,.93-.4,1.35-.68,.05-.03,.1-.06,.14-.1,.07-.05,.13-.09,.19-.14,.05-.03,.09-.07,.14-.11,.64-.51,1.18-1.14,1.57-1.86,.03-.05,.06-.1,.09-.15,.1-.2,.2-.4,.28-.61,.03-.08,.06-.16,.09-.25,.03-.07,.05-.14,.07-.21,.03-.08,.05-.16,.07-.24,.01-.02,.02-.05,.02-.07,.02-.09,.05-.18,.06-.27,.02-.09,.04-.18,.05-.27,.01-.07,.02-.15,.03-.22,3.65,.87,7.02,2.48,9.94,4.66,.2,.15,.4,.3,.6,.46,.22,.18,.45,.36,.66,.55h0c.22,.19,.43,.38,.64,.57t0,0c1.27,1.17,2.44,2.44,3.48,3.82l-11.01,11.01-4.29,4.29c-1.52,1.52-3.44,2.39-5.43,2.61Z"/>
    <path class="cls-5" d="M130.2,107.25c-.88,3.86-2.59,7.41-4.92,10.46l-.19-.19-.09-.09c2.28-2.98,3.97-6.45,4.87-10.22,.47-2,.73-4.09,.73-6.23,.03,0,.06,0,.1,0,.06,0,.11,0,.17,0h.02c2.18,0,4.3,.26,6.33,.74-.01,.07-.02,.15-.03,.22-.01,.09-.03,.18-.05,.27-.02,.09-.04,.18-.06,.27,0,.02,0,.05-.02,.07-.02,.08-.04,.16-.07,.24-.02,.07-.04,.14-.07,.21-.03,.09-.06,.17-.09,.25-.08,.2-.18,.41-.28,.61-.03,.05-.06,.1-.09,.15-.4,.72-.93,1.35-1.57,1.86-.05,.04-.09,.07-.14,.11-.06,.05-.13,.1-.19,.14-.05,.03-.1,.07-.14,.1-.41,.28-.86,.51-1.35,.68-.06,.02-.12,.05-.18,.06-.19,.07-.38,.12-.57,.16-.14,.03-.28,.06-.43,.09-.11,.01-.22,.03-.32,.04-.22,.03-.45,.04-.68,.04s-.45-.01-.68-.04Z"/>
    <path class="cls-3" d="M157.99,128.39c-6.19-.02-11.89-2.11-16.45-5.6l11.01-11.01c3.42,4.55,5.44,10.2,5.44,16.33,0,.1,0,.19,0,.29Z"/>
    <path class="cls-5" d="M130.88,155.37c-.1,0-.19,0-.28,0v-.07c0-6.18-2.06-11.88-5.54-16.45l4.22-4.22c1.39-1.4,2.25-3.14,2.54-4.94,1.98-.22,3.91-1.09,5.43-2.61l4.29-4.29c4.56,3.5,10.26,5.59,16.45,5.6,0-.1,0-.19,0-.29,0-6.13-2.03-11.78-5.44-16.33-1.04-1.38-2.21-2.65-3.48-3.82,1.28,1.15,2.46,2.43,3.5,3.8,3.46,4.56,5.52,10.25,5.52,16.42,0,.07,0,.14,0,.22-.11,14.93-12.25,26.99-27.2,26.99Z"/>
    <path class="cls-1" d="M104.41,134.44c-.48-2.01-.73-4.11-.73-6.26v-.07h0c0-2.19,.27-4.31,.77-6.35,2.9,.34,5.21,2.63,5.57,5.52,.04,.27,.06,.54,.06,.82s-.02,.55-.06,.81c-.36,2.91-2.69,5.21-5.61,5.53Z"/>
    <path class="cls-5" d="M76.49,100.97c-.1,0-.19,0-.29,0v-.18h.1c6.13,0,11.78-2.03,16.32-5.44l4.13,4.13c.59,.59,1.23,1.07,1.92,1.47-.13,.07-.25,.15-.37,.23-.07,.05-.14,.1-.2,.15-.06,.04-.12,.08-.18,.13-.09,.06-.16,.13-.24,.19-.25,.2-.49,.41-.72,.65l-4.13,4.13c-4.55-3.42-10.2-5.44-16.33-5.44Z"/>
    <path class="cls-5" d="M103.87,99.62c-.16,0-.31-.01-.47-.01-.2,0-.41,0-.61,.02-.19,.01-.38,.03-.56,.06-.01,0-.03,0-.04,0-.03,0-.06,0-.1,.01-.18,.02-.35,.06-.52,.09-.18,.03-.35,.07-.52,.12-.05,.02-.1,.03-.15,.04-.17,.05-.35,.11-.52,.16,0,0-.01,0-.01,0-.1,.04-.2,.07-.3,.11-.1,.04-.19,.07-.29,.12-.19,.08-.38,.17-.57,.27-.02,.01-.04,.02-.06,.03-.17,.09-.33,.18-.49,.28-.69-.39-1.33-.88-1.92-1.47l-4.13-4.13c-4.55,3.42-10.19,5.44-16.32,5.44h-.1c.02-6.13,2.07-11.79,5.53-16.33,3.76-4.96,9.18-8.59,15.44-10.05,2-.47,4.09-.72,6.23-.72h.09c2.18,0,4.29,.27,6.32,.76,4.27,1.03,8.15,3.07,11.37,5.85,.22,.19,.43,.38,.64,.58,1.12,1.02,2.15,2.14,3.09,3.35,3.55,4.58,5.67,10.33,5.69,16.56v.18c-6.16,.06-11.84,2.17-16.37,5.69l-4.38-4.38c-.59-.59-1.23-1.07-1.91-1.47-.04-.02-.08-.05-.12-.06-.11-.06-.22-.12-.32-.18-.05-.02-.1-.05-.15-.07-.02-.01-.03-.02-.05-.03-.13-.06-.26-.12-.39-.17-.03-.01-.05-.02-.08-.03-.17-.07-.34-.13-.51-.19-.02,0-.04-.01-.07-.02-.14-.05-.29-.1-.44-.14-.05-.01-.1-.03-.15-.04-.17-.05-.34-.08-.51-.11-.15-.03-.3-.06-.45-.07-.07-.01-.14-.02-.2-.03-.01,0-.02,0-.03,0-.02,0-.03,0-.05,0h-.02c-.1-.01-.19-.02-.28-.03-.09,0-.17-.01-.26-.02Z"/>
    <path class="cls-4" d="M125,117.43l-10.76-10.76c4.53-3.52,10.21-5.63,16.37-5.69-.02,6.19-2.11,11.89-5.6,16.45Z"/>
    <path class="cls-4" d="M81.8,117.43c-2.31-3.02-4.01-6.54-4.9-10.37-.34-1.46-.56-2.96-.65-4.5,0,0,0-.02,0-.02-.03-.52-.05-1.04-.05-1.56,.03,0,.06,0,.1,0,.06,0,.13,0,.19,0,2.11,0,4.16,.24,6.13,.69,3.76,.86,7.22,2.51,10.2,4.75l-11.01,11.01Z"/>
    <path class="cls-1" d="M103.4,128.09c-2.09,0-4.11-.23-6.06-.68,.31-2.96,2.64-5.31,5.59-5.67,.25-.03,.51-.05,.76-.05s.52,.02,.77,.05c2.9,.34,5.21,2.63,5.57,5.52-2.03,.52-4.15,.8-6.34,.81-.09,0-.19,0-.28,0Z"/>
    <path class="cls-5" d="M103.4,182.49c-15,0-27.16-12.13-27.2-27.12,.1,0,.19,0,.29,0,6.13,0,11.78-2.03,16.33-5.44l4.13,4.13c3.56,3.56,9.35,3.56,12.91,0l4.38-4.38c4.53,3.52,10.21,5.63,16.37,5.69-.04,14.99-12.2,27.12-27.2,27.12Z"/>
    <path class="cls-1" d="M103.68,134.48c-.24,0-.48-.01-.72-.05-2.97-.33-5.32-2.69-5.63-5.67,1.95-.44,3.98-.68,6.06-.68,.1,0,.19,0,.28,0,2.18,.02,4.3,.3,6.34,.81-.36,2.91-2.69,5.21-5.61,5.53-.24,.03-.48,.05-.73,.05Z"/>
    <path class="cls-4" d="M76.49,155.37c-.1,0-.19,0-.29,0v-.07c0-6.18,2.06-11.88,5.54-16.45l11.08,11.08c-4.55,3.42-10.2,5.44-16.33,5.44Z"/>
    <path class="cls-4" d="M130.6,155.37c-6.16-.06-11.84-2.17-16.37-5.69l10.83-10.83c3.47,4.56,5.54,10.26,5.54,16.45v.07Z"/>
    <path class="cls-2" d="M110.02,127.28c-.36-2.89-2.67-5.18-5.57-5.52,1.47-6.08,4.98-11.37,9.78-15.08l10.76,10.76c-3.68,4.8-8.93,8.34-14.98,9.84Z"/>
    <path class="cls-2" d="M114.23,149.68c-4.84-3.75-8.37-9.09-9.82-15.24,2.92-.32,5.25-2.62,5.61-5.53,6.09,1.52,11.36,5.09,15.04,9.94l-10.83,10.83Z"/>
    <path class="cls-2" d="M92.81,149.93l-11.08-11.08c3.8-5,9.28-8.63,15.6-10.08,.31,2.97,2.66,5.34,5.63,5.67-1.48,6.29-5.14,11.73-10.15,15.49Z"/>
    <path class="cls-2" d="M97.33,127.41c-6.28-1.43-11.74-5.03-15.53-9.98l11.01-11.01c4.96,3.73,8.6,9.11,10.11,15.33-2.95,.35-5.27,2.71-5.59,5.67Z"/>
    <path class="cls-7" d="M125.06,138.85c-3.68-4.85-8.96-8.42-15.04-9.94,.04-.27,.06-.53,.06-.81,0-.15,0-.31-.02-.46,0-.08-.01-.15-.03-.23,0-.04,0-.09-.01-.13,3.61-.9,6.93-2.52,9.81-4.71,1.94-1.47,3.68-3.19,5.17-5.13l.09,.09,4.19,4.19c2.17,2.17,3.02,5.16,2.54,7.97-.3,1.81-1.15,3.55-2.54,4.94l-4.22,4.22Z"/>
    <path class="cls-7" d="M96.94,154.06l-4.13-4.13c5-3.76,8.66-9.21,10.15-15.49,.24,.03,.48,.05,.72,.05s.49-.01,.73-.05c1.45,6.15,4.98,11.5,9.82,15.24l-4.38,4.38c-3.56,3.56-9.35,3.56-12.91,0Z"/>
    <path class="cls-7" d="M81.73,138.85l-4.22-4.22c-1.46-1.46-2.32-3.28-2.59-5.17-.39-2.75,.47-5.63,2.59-7.74l4.29-4.29c.3,.39,.6,.77,.93,1.14,.24,.29,.49,.57,.76,.85,.03,.04,.06,.07,.11,.11,.2,.22,.41,.44,.63,.65,.13,.13,.25,.26,.38,.38,.14,.14,.29,.27,.43,.41,.26,.23,.52,.46,.78,.69,.38,.32,.76,.63,1.15,.92,3.02,2.3,6.54,3.97,10.36,4.84,0,.02,0,.05,0,.07-.02,.2-.03,.4-.03,.61,0,.23,.01,.45,.04,.68-6.32,1.44-11.8,5.08-15.6,10.08Z"/>
    <path class="cls-7" d="M103.68,121.7c-.26,0-.51,.02-.76,.05-1.51-6.22-5.15-11.6-10.11-15.33l4.13-4.13c.23-.23,.47-.45,.72-.65,.08-.07,.16-.13,.24-.19,.06-.05,.12-.09,.18-.13,.07-.05,.14-.1,.2-.15,.12-.08,.24-.16,.37-.23,2.87,1.65,6.45,1.61,9.29-.12,.68,.39,1.32,.88,1.91,1.47l4.38,4.38c-4.8,3.72-8.32,9-9.78,15.08-.25-.03-.51-.05-.77-.05Z"/>
    <path class="cls-1" d="M103.68,134.48c-.24,0-.48-.01-.72-.05-2.97-.33-5.32-2.69-5.63-5.67-.03-.22-.04-.45-.04-.68s.01-.46,.04-.68c.31-2.96,2.64-5.31,5.59-5.67,.25-.03,.51-.05,.76-.05s.52,.02,.77,.05c2.9,.34,5.21,2.63,5.57,5.52,.04,.27,.06,.54,.06,.82s-.02,.55-.06,.81c-.36,2.91-2.69,5.21-5.61,5.53-.24,.03-.48,.05-.73,.05Z"/>
    <path class="cls-6" d="M103.68,134.48c-.24,0-.48-.01-.72-.05-2.97-.33-5.32-2.69-5.63-5.67-.03-.22-.04-.45-.04-.68s.01-.46,.04-.68c.31-2.96,2.64-5.31,5.59-5.67,.25-.03,.51-.05,.76-.05s.52,.02,.77,.05c2.9,.34,5.21,2.63,5.57,5.52,.04,.27,.06,.54,.06,.82s-.02,.55-.06,.81c-.36,2.91-2.69,5.21-5.61,5.53-.24,.03-.48,.05-.73,.05Z"/>
    <path class="cls-2" d="M69.95,99.98c-5.05-1.19-9.55-3.78-13.07-7.34-.24-.24-.47-.48-.69-.73-.18-.2-.36-.4-.54-.61-.03-.03-.06-.07-.09-.1-.1-.11-.2-.23-.3-.35-.16-.19-.31-.38-.46-.57-.03-.05-.06-.09-.09-.13l10.83-10.83,4.22-4.22c1.4-1.4,3.14-2.25,4.94-2.55-.3,2.67,.57,5.44,2.61,7.49l4.22,4.22c-2.23,2.94-3.89,6.35-4.78,10.06-.15-.01-.31-.02-.46-.02-.28,0-.55,.02-.81,.06-2.91,.36-5.21,2.69-5.53,5.61Z"/>
    <path class="cls-3" d="M54.71,90.15c-.09-.12-.18-.23-.27-.35,0,0-.01-.02-.02-.02-3.32-4.48-5.3-10-5.33-15.99,6.18,0,11.88,2.06,16.44,5.54l-10.83,10.83Z"/>
    <path class="cls-5" d="M65.54,79.32c-4.56-3.47-10.26-5.54-16.44-5.54,0-.06,0-.13,0-.19,0-14.93,12.02-27.04,26.91-27.2,.02,6.19,2.11,11.89,5.61,16.45l-4.29,4.29c-1.52,1.52-2.39,3.44-2.61,5.42-1.81,.3-3.55,1.15-4.94,2.55l-4.22,4.22Z"/>
    <path class="cls-5" d="M76,100.79c-.42,0-.85-.02-1.26-.05,0,0,0,0,0,0-1.64-.09-3.24-.32-4.79-.7-5.39-1.28-10.15-4.17-13.76-8.14,3.61,3.94,8.38,6.8,13.77,8.07,.32-2.92,2.62-5.25,5.53-5.61,.27-.04,.53-.06,.81-.06,.15,0,.31,0,.46,.02-.29,1.2-.5,2.44-.63,3.7h0c-.09,.88-.13,1.77-.13,2.67h0v.09Z"/>
    <path class="cls-1" d="M102.76,79.86c-2.97-.33-5.32-2.69-5.63-5.67-.03-.22-.04-.45-.04-.68s.01-.46,.04-.68c.31-2.96,2.64-5.31,5.59-5.67,.49,2.03,.76,4.16,.76,6.34h0v.09c0,2.15-.25,4.25-.72,6.26Z"/>
    <path class="cls-2" d="M137.2,100.01c-.39-2.84-2.66-5.08-5.51-5.44-.27-.04-.54-.06-.82-.06s-.55,.02-.81,.06c-.96-3.84-2.74-7.36-5.13-10.36l4.16-4.16c2.01-2.02,2.89-4.74,2.63-7.37,2.02,.2,3.99,1.08,5.54,2.63l4.29,4.29,10.66,10.66c-3.69,4.77-8.95,8.28-14.99,9.76Z"/>
    <path class="cls-3" d="M152.19,90.25l-10.66-10.66c4.54-3.47,10.2-5.56,16.35-5.6-.09,6.12-2.19,11.75-5.69,16.26Z"/>
    <path class="cls-5" d="M141.53,79.59l-4.29-4.29c-1.55-1.55-3.51-2.42-5.54-2.63-.2-2.03-1.08-3.99-2.63-5.54l-4.29-4.29c1.31-1.71,2.43-3.58,3.3-5.58,.51-1.15,.94-2.34,1.28-3.56,.51-1.8,.83-3.67,.96-5.59,.02-.29,.03-.59,.04-.88,0-.06,0-.11,0-.16,0-.15,.01-.31,.01-.47v-.22c.09,0,.19,0,.28,0,7.56,0,14.41,3.09,19.34,8.08,.27,.27,.54,.55,.8,.84,4.39,4.83,7.06,11.25,7.06,18.29,0,.13,0,.26,0,.39-6.15,.04-11.81,2.13-16.35,5.6Z"/>
    <path class="cls-5" d="M130.87,100.8h-.27c-.07,0-.14,0-.19,0v-.07c0-2.1-.24-4.14-.69-6.1-.88-3.82-2.55-7.33-4.85-10.35l.06-.06c2.39,3,4.17,6.51,5.13,10.36,.27-.04,.53-.06,.81-.06s.55,.02,.82,.06c2.85,.36,5.12,2.6,5.51,5.44-2.03,.51-4.14,.77-6.32,.78,0,0,0,0-.01,0Z"/>
    <path class="cls-1" d="M104.21,79.86c-.48-2.01-.73-4.11-.73-6.26v-.07h0c0-2.19,.27-4.31,.77-6.35,2.9,.34,5.21,2.63,5.57,5.52,.04,.27,.06,.54,.06,.82s-.02,.55-.06,.81c-.36,2.91-2.69,5.21-5.61,5.53Z"/>
    <path class="cls-5" d="M92.62,51.84c-4.55-3.42-10.2-5.44-16.33-5.44-.1,0-.19,0-.29,0v-.09c0-15.02,12.18-27.2,27.2-27.2s27.2,12.18,27.2,27.2v.09c-6.16,.06-11.84,2.17-16.37,5.69l-4.38-4.38c-3.56-3.57-9.35-3.57-12.91,0l-4.13,4.13Z"/>
    <path class="cls-4" d="M124.8,62.85l-10.76-10.76c4.53-3.52,10.21-5.63,16.37-5.69-.02,6.19-2.11,11.89-5.6,16.45Z"/>
    <path class="cls-4" d="M81.6,62.85c-3.5-4.56-5.59-10.26-5.6-16.45,.1,0,.19,0,.29,0,6.13,0,11.78,2.03,16.33,5.44l-11.01,11.01Z"/>
    <path class="cls-1" d="M103.2,73.51c-2.09,0-4.11-.23-6.06-.68,.31-2.96,2.64-5.31,5.59-5.67,.25-.03,.51-.05,.76-.05s.52,.02,.77,.05c2.9,.34,5.21,2.63,5.57,5.52-2.03,.52-4.15,.8-6.34,.81-.09,0-.19,0-.28,0Z"/>
    <path class="cls-1" d="M103.49,79.9c-.24,0-.48-.01-.72-.05-2.97-.33-5.32-2.69-5.63-5.67,1.95-.44,3.98-.68,6.06-.68,.1,0,.19,0,.28,0,2.18,.02,4.3,.3,6.34,.81-.36,2.91-2.69,5.21-5.61,5.53-.24,.03-.48,.05-.73,.05Z"/>
    <path class="cls-4" d="M76.3,100.8h-.1c-.07,0-.13,0-.2,0v-.08h0c0-.91,.05-1.8,.13-2.68h0c.13-1.27,.34-2.51,.63-3.71,.89-3.71,2.55-7.12,4.78-10.06l.19,.19,.1,.1,10.7,10.7,.09,.09c-2.92,2.19-6.3,3.82-9.97,4.69-1.55,.38-3.14,.61-4.79,.7h-.02c-.51,.03-1.03,.05-1.55,.05Z"/>
    <path class="cls-4" d="M130.4,100.79c-6.16-.06-11.84-2.17-16.37-5.69l10.83-10.83c3.47,4.56,5.54,10.26,5.54,16.45v.07Z"/>
    <path class="cls-2" d="M109.82,72.69c-.36-2.89-2.67-5.18-5.57-5.52,1.47-6.08,4.98-11.37,9.78-15.08l10.76,10.76c-3.68,4.8-8.93,8.34-14.98,9.84Z"/>
    <path class="cls-2" d="M114.03,95.1c-4.84-3.75-8.37-9.09-9.82-15.24,2.92-.32,5.25-2.62,5.61-5.53,6.09,1.52,11.36,5.09,15.04,9.94l-10.83,10.83Z"/>
    <path class="cls-2" d="M92.62,95.35l-11.08-11.08c3.8-5,9.28-8.63,15.6-10.08,.31,2.97,2.66,5.34,5.63,5.67-1.48,6.29-5.14,11.73-10.15,15.49Z"/>
    <path class="cls-2" d="M97.14,72.83c-6.28-1.43-11.74-5.03-15.53-9.98l11.01-11.01c4.96,3.73,8.6,9.11,10.11,15.33-2.95,.35-5.27,2.71-5.59,5.67Z"/>
    <path class="cls-7" d="M124.87,84.27c-.67-.88-1.4-1.72-2.17-2.51-.02-.03-.05-.05-.07-.07-.24-.24-.48-.48-.73-.72-.02-.02-.05-.05-.08-.07-.19-.18-.38-.35-.57-.51-.02-.03-.05-.05-.07-.07-.32-.29-.66-.57-1-.84-3-2.4-6.51-4.18-10.35-5.14,.03-.27,.06-.53,.06-.81s-.02-.55-.06-.82c6.05-1.51,11.29-5.04,14.98-9.84l4.29,4.29c1.55,1.55,2.42,3.51,2.63,5.54,.27,2.63-.61,5.35-2.63,7.37l-4.22,4.22Z"/>
    <path class="cls-7" d="M98.66,100.94c2.84-1.73,6.42-1.77,9.29-.12-2.84,1.73-6.42,1.77-9.29,.12Z"/>
    <path class="cls-7" d="M98.66,100.94c-.69-.39-1.33-.88-1.92-1.47l-4.13-4.13c5.01-3.76,8.66-9.21,10.15-15.49,.24,.03,.48,.05,.72,.05s.49-.01,.72-.05c1.46,6.15,4.99,11.5,9.82,15.24l-4.37,4.38c-.53,.53-1.1,.98-1.72,1.35-.04-.02-.08-.05-.12-.06-.11-.06-.22-.12-.32-.18-.05-.02-.1-.05-.15-.07-.02-.01-.03-.02-.05-.03-.13-.06-.26-.12-.39-.17-.03-.01-.05-.02-.08-.03-.17-.07-.34-.13-.51-.19-.02,0-.04-.01-.07-.02-.14-.05-.29-.1-.44-.14-.05-.01-.1-.03-.15-.04-.16-.04-.34-.08-.51-.11-.15-.03-.3-.06-.45-.07-.07-.01-.14-.02-.2-.03-.01,0-.02,0-.03,0-.02,0-.03,0-.05,0h-.02c-.1-.01-.19-.02-.28-.03-.09,0-.17-.01-.26-.02-.16,0-.31-.01-.47-.01-.2,0-.41,0-.61,.02-.19,.01-.38,.03-.56,.06-.01,0-.03,0-.04,0-.03,0-.06,0-.1,.01-.18,.02-.35,.06-.52,.09-.18,.03-.35,.07-.52,.12-.05,.02-.1,.03-.15,.04-.17,.05-.35,.11-.52,.16,0,0-.01,0-.01,0-.1,.04-.2,.07-.3,.11-.1,.04-.19,.07-.29,.12-.19,.08-.38,.17-.57,.27-.02,.01-.04,.02-.06,.03-.17,.09-.33,.18-.49,.28Z"/>
    <path class="cls-7" d="M81.53,84.27l-4.22-4.22c-2.05-2.05-2.92-4.83-2.61-7.49,.23-1.98,1.09-3.9,2.61-5.42l4.29-4.29c3.8,4.95,9.25,8.55,15.53,9.98-.03,.22-.04,.45-.04,.68s0,.45,.04,.68c-3.86,.88-7.42,2.59-10.46,4.92-1.94,1.48-3.67,3.21-5.14,5.16Z"/>
    <path class="cls-7" d="M103.49,67.12c-.26,0-.51,.02-.76,.05-1.51-6.22-5.15-11.6-10.11-15.33l4.13-4.13c3.56-3.57,9.35-3.57,12.91,0l4.38,4.38c-4.8,3.72-8.32,9-9.78,15.08-.25-.03-.51-.05-.77-.05Z"/>
    <path class="cls-1" d="M103.49,79.9c-.24,0-.48-.01-.72-.05-2.97-.33-5.32-2.69-5.63-5.67-.03-.22-.04-.45-.04-.68s.01-.46,.04-.68c.31-2.96,2.64-5.31,5.59-5.67,.25-.03,.51-.05,.76-.05s.52,.02,.77,.05c2.9,.34,5.21,2.63,5.57,5.52,.04,.27,.06,.54,.06,.82s-.02,.55-.06,.81c-.36,2.91-2.69,5.21-5.61,5.53-.24,.03-.48,.05-.73,.05Z"/>
    <path class="cls-6" d="M103.49,79.9c-.24,0-.48-.01-.72-.05-2.97-.33-5.32-2.69-5.63-5.67-.03-.22-.04-.45-.04-.68s.01-.46,.04-.68c.31-2.96,2.64-5.31,5.59-5.67,.25-.03,.51-.05,.76-.05s.52,.02,.77,.05c2.9,.34,5.21,2.63,5.57,5.52,.04,.27,.06,.54,.06,.82s-.02,.55-.06,.81c-.36,2.91-2.69,5.21-5.61,5.53-.24,.03-.48,.05-.73,.05Z"/>
  </g>
</svg>